<svg width="15" height="15" viewBox="0 0 15 15" fill="none" xmlns="http://www.w3.org/2000/svg">
<path id="Vector" d="M14.8167 13.9336L11.0861 10.203C12.1028 8.9596 12.6026 7.37303 12.4823 5.77145C12.3619 4.16987 11.6306 2.67581 10.4396 1.5983C9.24859 0.520793 7.68898 -0.0577183 6.08339 -0.0175734C4.4778 0.0225715 2.94905 0.678301 1.81337 1.81398C0.677691 2.94966 0.0219612 4.47841 -0.0181837 6.084C-0.0583286 7.68959 0.520183 9.2492 1.59769 10.4402C2.6752 11.6312 4.16926 12.3625 5.77084 12.4829C7.37242 12.6032 8.95899 12.1034 10.2024 11.0867L13.933 14.8174C14.0509 14.9312 14.2087 14.9942 14.3726 14.9928C14.5365 14.9913 14.6932 14.9256 14.8091 14.8097C14.925 14.6939 14.9907 14.5371 14.9922 14.3732C14.9936 14.2094 14.9306 14.0515 14.8167 13.9336ZM6.24986 11.2505C5.26096 11.2505 4.29426 10.9572 3.47201 10.4078C2.64977 9.85842 2.0089 9.07752 1.63047 8.16389C1.25203 7.25026 1.15301 6.24493 1.34594 5.27502C1.53886 4.30512 2.01507 3.4142 2.71433 2.71494C3.41359 2.01568 4.30451 1.53947 5.27441 1.34655C6.24432 1.15362 7.24965 1.25264 8.16328 1.63108C9.07691 2.00951 9.8578 2.65038 10.4072 3.47262C10.9566 4.29487 11.2499 5.26157 11.2499 6.25047C11.2484 7.5761 10.7211 8.84701 9.78375 9.78436C8.84639 10.7217 7.57549 11.249 6.24986 11.2505Z" fill="white"/>
</svg>
